<mxfile host="app.diagrams.net" modified="2020-08-29T17:40:12.637Z" agent="5.0 (Windows NT 10.0; Win64; x64) AppleWebKit/537.36 (KHTML, like Gecko) Chrome/84.0.4147.135 Safari/537.36" etag="0CLQbzo72HJoiG4h5A7C" version="13.6.5" type="github">
  <diagram id="7ISmIITZuPRYXa6jLOMT" name="Page-1">
    <mxGraphModel dx="1102" dy="582" grid="1" gridSize="10" guides="1" tooltips="1" connect="1" arrows="1" fold="1" page="1" pageScale="1" pageWidth="850" pageHeight="1100" math="0" shadow="0">
      <root>
        <mxCell id="0" />
        <mxCell id="1" parent="0" />
        <mxCell id="7_qbGhwapDgG3x3eJPt4-1" value="Right aligned image" style="whiteSpace=wrap;html=1;aspect=fixed;" parent="1" vertex="1">
          <mxGeometry x="560" y="160" width="220" height="220" as="geometry" />
        </mxCell>
        <mxCell id="7_qbGhwapDgG3x3eJPt4-2" value="Top Nav" style="rounded=0;whiteSpace=wrap;html=1;" parent="1" vertex="1">
          <mxGeometry x="20" y="10" width="770" height="130" as="geometry" />
        </mxCell>
        <mxCell id="7_qbGhwapDgG3x3eJPt4-3" value="Mission Statement" style="rounded=0;whiteSpace=wrap;html=1;" parent="1" vertex="1">
          <mxGeometry x="20" y="160" width="510" height="90" as="geometry" />
        </mxCell>
        <mxCell id="7_qbGhwapDgG3x3eJPt4-4" value="Discuss each page" style="rounded=0;whiteSpace=wrap;html=1;" parent="1" vertex="1">
          <mxGeometry x="20" y="270" width="510" height="110" as="geometry" />
        </mxCell>
        <mxCell id="7_qbGhwapDgG3x3eJPt4-5" value="FAQ (possibly combine w. discuss each page above)" style="rounded=0;whiteSpace=wrap;html=1;" parent="1" vertex="1">
          <mxGeometry x="20" y="400" width="770" height="170" as="geometry" />
        </mxCell>
        <mxCell id="7_qbGhwapDgG3x3eJPt4-6" value="centered img" style="rounded=0;whiteSpace=wrap;html=1;" parent="1" vertex="1">
          <mxGeometry x="265" y="600" width="280" height="180" as="geometry" />
        </mxCell>
        <mxCell id="7_qbGhwapDgG3x3eJPt4-7" value="Past Events - domestic and abroad; reusing Katie&#39;s imgs layout&amp;nbsp;(N.O.; abroad) - need to be clear about what image is showing; include where they are, what they doing.&amp;nbsp;" style="rounded=0;whiteSpace=wrap;html=1;" parent="1" vertex="1">
          <mxGeometry x="60" y="820" width="720" height="110" as="geometry" />
        </mxCell>
        <mxCell id="7_qbGhwapDgG3x3eJPt4-8" value="footer" style="rounded=0;whiteSpace=wrap;html=1;" parent="1" vertex="1">
          <mxGeometry x="60" y="960" width="720" height="100" as="geometry" />
        </mxCell>
      </root>
    </mxGraphModel>
  </diagram>
</mxfile>
